HIERARCHY
ROOT Hips
{
	OFFSET 0.00000 0.00000 0.00000
	CHANNELS 6 Xposition Yposition Zposition Zrotation Yrotation Xrotation 
	JOINT LHipJoint
	{
		OFFSET 0 0 0
		CHANNELS 3 Zrotation Yrotation Xrotation
		JOINT LeftUpLeg
		{
			OFFSET 3.13874 -1.57224 1.49786
			CHANNELS 3 Zrotation Yrotation Xrotation
			JOINT LeftLeg
			{
				OFFSET 2.10955 -5.79594 0.00000
				CHANNELS 3 Zrotation Yrotation Xrotation
				JOINT LeftFoot
				{
					OFFSET 2.41843 -6.64458 0.00000
					CHANNELS 3 Zrotation Yrotation Xrotation
					JOINT LeftToeBase
					{
						OFFSET 0.04713 -0.12948 1.66229
						CHANNELS 3 Zrotation Yrotation Xrotation
						End Site
						{
							OFFSET 0.00000 -0.00000 0.85167
						}
					}
				}
			}
		}
	}
	JOINT RHipJoint
	{
		OFFSET 0 0 0
		CHANNELS 3 Zrotation Yrotation Xrotation
		JOINT RightUpLeg
		{
			OFFSET -3.13988 -1.57224 1.49786
			CHANNELS 3 Zrotation Yrotation Xrotation
			JOINT RightLeg
			{
				OFFSET -2.15006 -5.90725 0.00000
				CHANNELS 3 Zrotation Yrotation Xrotation
				JOINT RightFoot
				{
					OFFSET -2.34496 -6.44273 0.00000
					CHANNELS 3 Zrotation Yrotation Xrotation
					JOINT RightToeBase
					{
						OFFSET -0.08699 -0.23900 1.55223
						CHANNELS 3 Zrotation Yrotation Xrotation
						End Site
						{
							OFFSET -0.00000 -0.00000 0.80281
						}
					}
				}
			}
		}
	}
	JOINT LowerBack
	{
		OFFSET 0 0 0
		CHANNELS 3 Zrotation Yrotation Xrotation
		JOINT Spine
		{
			OFFSET 0.01292 1.96517 -0.16495
			CHANNELS 3 Zrotation Yrotation Xrotation
			JOINT Spine1
			{
				OFFSET 0.02122 1.88666 0.19706
				CHANNELS 3 Zrotation Yrotation Xrotation
				JOINT Neck
				{
					OFFSET 0 0 0
					CHANNELS 3 Zrotation Yrotation Xrotation
					JOINT Neck1
					{
						OFFSET -0.01683 1.81591 0.07903
						CHANNELS 3 Zrotation Yrotation Xrotation
						JOINT Head
						{
							OFFSET 0.00815 1.74013 -0.47700
							CHANNELS 3 Zrotation Yrotation Xrotation
							End Site
							{
								OFFSET -0.00204 1.83225 -0.16933
							}
						}
					}
				}
				JOINT LeftShoulder
				{
					OFFSET 0 0 0
					CHANNELS 3 Zrotation Yrotation Xrotation
					JOINT LeftArm
					{
						OFFSET 3.38482 1.41533 0.19802
						CHANNELS 3 Zrotation Yrotation Xrotation
						JOINT LeftForeArm
						{
							OFFSET 4.32712 -0.00000 0.00000
							CHANNELS 3 Zrotation Yrotation Xrotation
							JOINT LeftHand
							{
								OFFSET 3.28587 -0.00000 -0.00000
								CHANNELS 3 Zrotation Yrotation Xrotation
								JOINT LeftFingerBase
								{
									OFFSET 0 0 0
									CHANNELS 3 Zrotation Yrotation Xrotation
									JOINT LeftHandIndex1
									{
										OFFSET 0.43316 -0.00000 -0.00000
										CHANNELS 3 Zrotation Yrotation Xrotation
										End Site
										{
											OFFSET 0.34922 -0.00000 -0.00000
										}
									}
								}
								JOINT LThumb
								{
									OFFSET 0 0 0
									CHANNELS 3 Zrotation Yrotation Xrotation
									End Site
									{
										OFFSET 0.35456 -0.00000 0.35456
									}
								}
							}
						}
					}
				}
				JOINT RightShoulder
				{
					OFFSET 0 0 0
					CHANNELS 3 Zrotation Yrotation Xrotation
					JOINT RightArm
					{
						OFFSET -3.09725 1.62858 -0.14144
						CHANNELS 3 Zrotation Yrotation Xrotation
						JOINT RightForeArm
						{
							OFFSET -4.29104 -0.00000 0.00000
							CHANNELS 3 Zrotation Yrotation Xrotation
							JOINT RightHand
							{
								OFFSET -3.22720 -0.00000 -0.00000
								CHANNELS 3 Zrotation Yrotation Xrotation
								JOINT RightFingerBase
								{
									OFFSET 0 0 0
									CHANNELS 3 Zrotation Yrotation Xrotation
									JOINT RightHandIndex1
									{
										OFFSET -0.54362 -0.00000 -0.00000
										CHANNELS 3 Zrotation Yrotation Xrotation
										End Site
										{
											OFFSET -0.43828 -0.00000 -0.00000
										}
									}
								}
								JOINT RThumb
								{
									OFFSET 0 0 0
									CHANNELS 3 Zrotation Yrotation Xrotation
									End Site
									{
										OFFSET -0.44497 -0.00000 0.44497
									}
								}
							}
						}
					}
				}
			}
		}
	}
}
MOTION
Frames: 13
Frame Time: .0083333
5.7262 14.2062 3.8067 194.6130 -53.4998 -177.4870 0.0000 0.0000 0.0000 7.7265 -30.2900 -43.7148 10.8927 17.8822 62.4328 3.4307 -12.8882 -33.5372 5.4550 -13.8785 -42.7530 0.0000 0.0000 0.0000 30.0971 20.5179 -29.6115 -8.4258 -16.4237 54.0822 -3.8552 -9.5224 -41.1608 -2.9675 10.6422 -31.0824 3.7890 3.5173 14.7307 -0.8065 5.3808 -9.7323 -4.6898 1.6866 -19.2996 3.6376 2.0535 -15.0292 -6.4398 3.1141 25.3038 -2.5601 0.7620 10.7877 0.0000 0.0000 0.0000 -60.9243 2.9317 -16.8532 119.6986 -56.3897 -85.4080 -0.0000 -0.0000 0.2929 64.3031 29.1660 45.3632 -7.1250 0.0000 -0.0000 69.0924 71.7751 50.3032 0.0000 0.0000 0.0000 57.6485 0.7586 23.7264 -103.7724 59.2710 -71.8980 0.0000 -0.0000 -4.5604 -46.5336 -6.2958 6.5995 7.1250 -0.0000 -0.0000 -17.0364 -38.5418 -2.8070
5.8647 14.1438 3.6441 201.4360 -57.1985 -183.4860 0.0000 0.0000 0.0000 12.0867 -28.3695 -47.9776 11.1516 18.0085 63.2730 3.5118 -11.0542 -33.9213 5.2030 -13.6088 -41.6923 0.0000 0.0000 0.0000 34.5931 20.2742 -28.1297 -8.1713 -16.2438 53.1772 -3.9772 -11.0621 -42.5141 -3.3002 11.1658 -32.8413 4.6817 2.1043 15.1811 1.1340 3.9793 -9.6720 -2.5069 1.1182 -19.7846 3.9288 2.2230 -14.9954 -6.6827 3.3425 25.0575 -2.6608 0.8729 10.7137 -0.0000 0.0000 0.0000 -62.0186 -1.1836 -14.4378 120.3645 -56.2120 -85.9620 -0.0000 -0.0000 1.5546 64.3119 29.0221 45.2452 -7.1250 0.0000 -0.0000 68.7643 71.6583 49.8692 -0.0000 0.0000 0.0000 57.6218 -4.8179 22.5101 -106.6475 58.9265 -74.3652 0.0000 -0.0000 -4.9187 -46.4114 -6.1513 6.4226 7.1250 -0.0000 -0.0000 -16.8956 -38.3305 -2.8732
5.9878 14.0818 3.4936 209.1220 -60.4432 -190.5180 0.0000 0.0000 0.0000 16.1076 -26.9659 -52.2499 11.4013 18.1259 64.0781 3.4318 -10.4256 -33.5257 4.6143 -12.9358 -39.1287 0.0000 0.0000 0.0000 38.6206 19.1268 -27.1235 -7.8170 -15.9830 51.9009 -4.4035 -11.2247 -44.4202 -3.0023 10.6987 -31.2703 5.3595 0.7115 15.6487 3.0771 2.5343 -9.5463 -0.1292 0.5723 -20.1488 3.7071 2.4274 -15.2179 -6.7400 3.7074 24.8530 -2.5876 1.0155 10.7029 -0.0000 -0.0000 0.0000 -63.5564 -5.2069 -12.0186 120.7756 -56.0997 -86.3034 -0.0000 -0.0000 2.8004 64.0195 28.8817 44.7456 -7.1250 0.0000 -0.0000 67.4089 71.5341 48.5081 -0.0000 -0.0000 0.0000 57.4964 -10.1300 21.2139 -108.6809 58.6394 -76.1042 0.0000 -0.0000 -5.3521 -46.5298 -5.8876 6.1758 7.1250 -0.0000 -0.0000 -16.9363 -37.9785 -3.0327
6.0957 14.0315 3.3628 216.5300 -63.3514 -197.5720 0.0000 0.0000 0.0000 18.9241 -26.1748 -56.2355 11.6069 18.2195 64.7373 3.3551 -8.9338 -33.1906 4.2926 -12.5400 -37.6700 0.0000 0.0000 0.0000 41.5479 16.9209 -26.7764 -7.3947 -15.6554 50.3517 -4.9867 -10.8797 -46.6204 -2.4809 9.8031 -28.3415 5.3755 -0.6013 16.2743 4.7603 1.0018 -9.3807 2.3974 0.0678 -20.4843 5.0370 2.5782 -15.6300 -8.3882 3.9879 24.9769 -3.3858 1.0566 10.9145 -0.0000 -0.0000 0.0000 -65.3035 -9.1781 -9.5229 120.7531 -56.1059 -86.2848 -0.0000 -0.0000 3.8242 64.1992 28.7305 44.8368 -7.1250 0.0000 -0.0000 67.6564 71.4149 48.5885 -0.0000 -0.0000 0.0000 57.4192 -15.1463 19.8316 -109.8136 58.4634 -77.0705 0.0000 -0.0000 -5.9858 -46.5956 -5.7968 6.0954 7.1250 -0.0000 -0.0000 -16.9717 -37.8592 -3.0911
6.1876 13.9904 3.2512 223.2110 -65.9105 -204.3220 0.0000 0.0000 0.0000 20.3152 -25.7924 -59.2516 11.6713 18.2482 64.9432 3.2709 -6.4484 -32.9704 4.4731 -12.7647 -38.4939 0.0000 0.0000 0.0000 43.4294 13.8254 -26.7057 -6.9351 -15.2770 48.6285 -5.4477 -10.7054 -48.3339 -2.1211 9.1139 -26.1522 4.6666 -1.7598 17.1963 6.2937 -0.4612 -9.4466 4.7772 -0.3963 -20.6270 5.4244 2.7863 -14.7959 -8.6026 4.2296 23.9742 -3.4664 1.2219 10.4147 0.0000 -0.0000 0.0000 -67.1029 -13.1559 -6.9768 120.2658 -56.2387 -85.8800 -0.0000 -0.0000 4.7107 64.3132 28.8522 45.0932 -7.1250 0.0000 -0.0000 68.3459 71.5189 49.3283 0.0000 -0.0000 0.0000 57.5881 -20.0716 18.3577 -110.3441 58.3769 -77.5225 0.0000 -0.0000 -6.6998 -46.7513 -5.8199 6.1527 7.1250 -0.0000 -0.0000 -17.1119 -37.9058 -3.0982
6.2721 13.9481 3.1599 229.9680 -67.8913 -211.3740 0.0000 0.0000 0.0000 21.1882 -25.5107 -61.3844 11.6076 18.2198 64.7394 3.1027 -4.7951 -32.3011 4.4979 -12.7951 -38.6061 0.0000 0.0000 0.0000 44.8503 10.3669 -26.9717 -6.5968 -14.9827 47.3323 -5.7303 -10.2807 -49.2177 -1.9038 8.6627 -24.7457 4.1420 -2.7653 18.4434 7.3753 -1.7357 -9.2833 6.8602 -0.7526 -21.1335 6.0914 3.0980 -15.2800 -9.3432 4.6819 24.2874 -3.8009 1.3836 10.6997 0.0000 -0.0000 0.0000 -68.9284 -16.7856 -4.3428 119.3797 -56.4730 -85.1423 -0.0000 -0.0000 5.5479 63.7147 29.2607 44.7010 -7.1250 0.0000 -0.0000 67.2913 71.8397 48.7610 0.0000 -0.0000 0.0000 58.1211 -24.7542 16.7304 -110.2549 58.3916 -77.4466 0.0000 -0.0000 -7.5098 -46.9898 -5.7456 6.1254 7.1250 -0.0000 -0.0000 -17.2999 -37.8250 -3.1706
6.3511 13.9051 3.0912 235.9790 -69.4066 -217.7360 0.0000 0.0000 0.0000 21.5668 -25.3610 -62.8378 11.4649 18.1552 64.2823 2.9290 -4.2716 -31.4281 4.2519 -12.4883 -37.4821 0.0000 0.0000 0.0000 45.6457 7.0677 -27.8698 -6.4962 -14.8925 46.9420 -5.7590 -10.0047 -49.2070 -1.9601 8.7824 -25.1171 3.6303 -3.5649 19.7362 8.1020 -2.7721 -9.1135 8.4897 -1.0214 -21.6072 6.3665 3.1487 -15.4103 -9.7075 4.7667 24.0825 -3.9639 1.4091 10.6751 0.0000 -0.0000 0.0000 -70.9567 -20.2145 -1.7657 117.7794 -56.8732 -83.8051 -0.0000 -0.0000 6.5539 63.2420 29.5496 44.3659 -7.1250 0.0000 -0.0000 66.3711 72.0637 48.2024 0.0000 -0.0000 0.0000 58.9605 -29.0446 15.0948 -109.5372 58.5074 -76.8349 0.0000 -0.0000 -8.6458 -47.1702 -5.5719 5.9795 7.1250 -0.0000 -0.0000 -17.4126 -37.5998 -3.2930
6.4134 13.8639 3.0349 240.7490 -70.4782 -222.8260 0.0000 0.0000 0.0000 21.6499 -25.1230 -63.6986 11.3055 18.0814 63.7697 2.8194 -4.1522 -30.8281 4.1844 -12.4018 -37.1688 0.0000 0.0000 0.0000 46.0567 4.1991 -29.1528 -6.6111 -14.9955 47.3876 -5.7058 -9.6578 -48.8589 -2.0954 9.0620 -25.9895 3.0553 -4.1478 20.7222 8.5607 -3.6018 -8.8789 9.7504 -1.2241 -21.7721 6.5072 3.2617 -15.5343 -9.4305 4.8198 23.8090 -3.8675 1.4916 10.6000 -0.0000 0.0000 0.0000 -72.9270 -22.9046 0.9626 115.9914 -57.2868 -82.3042 -0.0000 -0.0000 7.2201 63.6229 29.6968 44.9714 -7.1250 0.0000 -0.0000 68.0523 72.1979 49.8603 -0.0000 0.0000 0.0000 59.8049 -32.6972 13.7920 -108.1072 58.7242 -75.6141 0.0000 -0.0000 -10.0846 -47.0386 -5.0967 5.4493 7.1250 -0.0000 -0.0000 -17.1831 -36.9262 -3.5417
6.4537 13.8217 2.9798 244.1040 -71.0510 -226.4570 0.0000 0.0000 0.0000 21.6337 -24.4109 -64.0614 11.1682 18.0164 63.3265 2.8034 -4.1685 -30.7332 4.4448 -12.7299 -38.3655 0.0000 0.0000 0.0000 46.4436 2.0078 -30.3304 -6.8379 -15.1939 48.2586 -5.7845 -8.9588 -48.8672 -2.0738 9.0182 -25.8522 2.4574 -4.4666 21.1734 8.8297 -4.1547 -8.5600 10.6242 -1.3574 -21.4976 6.6945 3.3031 -15.7551 -9.1993 4.7709 23.7878 -3.8193 1.5159 10.6290 0.0000 -0.0000 0.0000 -74.4742 -24.6001 4.1577 113.9015 -57.7273 -80.5413 -0.0000 -0.0000 6.9379 65.2392 29.5741 46.9384 -7.1250 0.0000 -0.0000 73.4582 72.0727 54.6754 0.0000 -0.0000 0.0000 60.4553 -35.4987 13.0602 -105.9122 59.0213 -73.7351 0.0000 -0.0000 -11.1873 -46.9507 -4.8213 5.1413 7.1250 -0.0000 -0.0000 -17.0416 -36.5353 -3.6801
6.4766 13.7770 2.9287 245.3370 -71.4762 -227.8170 0.0000 0.0000 0.0000 21.2521 -23.4200 -64.2219 11.0660 17.9672 62.9957 2.7817 -4.4641 -30.5568 4.3822 -12.6523 -38.0805 0.0000 0.0000 0.0000 46.5237 0.8391 -31.2338 -7.0639 -15.3854 49.1154 -5.8097 -8.8508 -48.9190 -2.1862 9.2436 -26.5603 1.6723 -4.5381 21.1213 8.8409 -4.4939 -8.2978 11.1591 -1.4207 -21.0029 6.8815 3.2856 -15.8705 -8.8558 4.6118 23.7536 -3.7451 1.5059 10.6191 0.0000 -0.0000 0.0000 -75.6724 -26.0934 7.2156 110.8195 -58.2971 -77.9272 -0.0000 -0.0000 6.4111 66.5851 29.1372 48.3503 -7.1250 0.0000 -0.0000 77.1546 71.6476 57.6733 0.0000 -0.0000 0.0000 60.6380 -37.3672 13.1131 -103.2633 59.3247 -71.4603 0.0000 -0.0000 -11.5784 -47.5998 -7.1511 7.7632 7.1250 -0.0000 -0.0000 -18.1936 -39.8460 -2.4037
6.4866 13.7309 2.8882 244.9010 -71.7867 -227.3670 0.0000 0.0000 0.0000 20.7460 -22.4337 -64.4403 11.0853 17.9766 63.0581 2.8648 -4.5756 -31.0127 4.5274 -12.8309 -38.7387 0.0000 0.0000 0.0000 46.3852 0.7230 -31.6924 -7.2201 -15.5145 49.7020 -5.8809 -8.7361 -49.1425 -2.2331 9.3355 -26.8506 0.9033 -4.4752 20.7221 8.6802 -4.6803 -8.1408 11.3942 -1.4470 -20.4647 7.2750 3.3657 -15.9724 -8.8451 4.6180 23.9036 -3.8122 1.5433 10.7045 -0.0000 0.0000 0.0000 -76.6093 -27.1503 9.5065 107.7600 -58.7740 -75.3173 -0.0000 -0.0000 6.9917 64.8112 29.1972 46.0458 -7.1250 0.0000 -0.0000 70.9516 71.7989 52.0254 -0.0000 0.0000 0.0000 60.2011 -38.3014 14.0081 -100.3411 59.5920 -68.9434 0.0000 -0.0000 -11.7329 -47.2479 -5.9405 6.3878 7.1250 -0.0000 -0.0000 -17.5719 -38.1209 -3.0912
6.4920 13.6815 2.8620 243.5010 -71.8464 -225.9400 0.0000 0.0000 0.0000 20.3903 -21.5548 -64.7035 11.2793 18.0691 63.6853 2.9905 -5.2218 -31.6148 4.5576 -12.8676 -38.8750 0.0000 0.0000 0.0000 46.2668 1.4679 -31.6886 -7.3235 -15.5984 50.0876 -6.1610 -8.3304 -50.0339 -2.0236 8.9151 -25.5301 0.4332 -4.3061 20.2999 8.4032 -4.6378 -8.0677 11.2489 -1.4151 -20.0935 7.1284 3.2635 -15.5648 -8.3459 4.3988 23.6659 -3.6278 1.5029 10.5006 -0.0000 0.0000 0.0000 -77.2495 -27.3975 11.1152 106.2697 -58.9758 -74.0415 -0.0000 -0.0000 6.7495 63.3054 29.1479 44.0876 -7.1250 0.0000 -0.0000 65.6200 71.7256 47.1475 -0.0000 0.0000 0.0000 59.4592 -38.3740 15.2887 -98.8672 59.7008 -67.6715 0.0000 -0.0000 -11.0612 -47.4579 -7.0378 7.6048 7.1250 -0.0000 -0.0000 -18.0371 -39.6711 -2.4623
6.5003 13.6306 2.8547 241.2300 -71.7396 -223.5690 0.0000 0.0000 0.0000 20.1990 -21.0170 -65.0597 11.5914 18.2125 64.6878 3.1199 -6.1052 -32.2018 4.5439 -12.8510 -38.8133 0.0000 0.0000 0.0000 46.0528 2.9526 -31.6865 -7.5053 -15.7431 50.7607 -6.4142 -8.5948 -51.0667 -1.8973 8.6489 -24.7031 0.2779 -4.0673 20.0098 8.0015 -4.4111 -8.1514 10.7554 -1.3274 -20.0708 7.3267 3.2638 -15.4180 -8.4347 4.3741 23.9116 -3.7062 1.4939 10.5665 -0.0000 -0.0000 0.0000 -77.5456 -26.7039 12.6582 105.5539 -59.0659 -73.4278 -0.0000 -0.0000 5.9387 62.7559 27.9328 42.2945 -7.1250 0.0000 -0.0000 61.0590 70.5923 41.9244 -0.0000 -0.0000 0.0000 58.5807 -37.6803 16.7385 -97.6460 59.7779 -66.6167 0.0000 -0.0000 -10.7381 -46.6921 -3.6066 3.8180 7.1250 -0.0000 -0.0000 -16.5372 -34.8256 -4.2810
